<?xml version="1.0" encoding="utf-8"?>
<!-- Generator: Adobe Illustrator 22.1.0, SVG Export Plug-In . SVG Version: 6.00 Build 0)  -->
<svg version="1.1" id="Ebene_1" xmlns="http://www.w3.org/2000/svg" xmlns:xlink="http://www.w3.org/1999/xlink" x="0px" y="0px"
	 width="123px" height="31px" viewBox="0 0 123 31" style="enable-background:new 0 0 123 31;" xml:space="preserve">
<style type="text/css">
	.st0{fill:#ACABAB;}
</style>
<g>
	<path class="st0" d="M7.226,29.304c-0.384,0.579-1.189,0.903-2.631,0.903c-0.71,0-0.888-0.108-0.905-0.299
		c-0.036-0.589-0.054-1.006-0.054-2.159v-2.213c0.195-0.036,0.533-0.053,0.889-0.053c1.385,0,2.187,0.281,2.612,0.725
		c0.373,0.426,0.48,0.795,0.48,1.594C7.617,28.53,7.45,28.963,7.226,29.304 M3.636,22.668c0-0.941,0.036-1.321,0.071-1.84
		c0-0.227,0.143-0.336,1.066-0.336c1.137,0,1.687,0.23,1.971,0.657c0.212,0.318,0.284,0.595,0.288,1.199
		c0.002,1.431-0.925,2.12-2.507,2.12c-0.356,0-0.675,0-0.889-0.018V22.668z M8.647,25.633c-0.568-0.39-1.307-0.729-2.384-0.753
		c0.495-0.089,0.79-0.153,1.187-0.363c0.657-0.347,1.463-0.997,1.463-2.364c0-0.692-0.23-1.332-0.693-1.744
		c-0.532-0.492-1.243-0.969-2.877-0.969c-0.943,0-1.955,0.054-2.79,0.054c-0.834,0-1.598-0.054-2.168-0.054v0.54
		c1.154,0.053,1.442,0.159,1.459,0.408c0.053,0.604,0.053,1.428,0.053,2.546v4.69c0,1.084-0.036,2.12-0.07,2.671
		c-0.019,0.319-0.288,0.391-1.461,0.443l-0.017,0.541c0.606-0.018,1.654-0.053,2.151-0.053c0.782,0,1.597,0.035,2.378,0.035
		c1.265,0,2.527-0.164,3.361-0.71c0.904-0.591,1.402-1.649,1.402-2.802C9.641,26.648,9.232,26.026,8.647,25.633"/>
	<path class="st0" d="M31.2875,28.87c-0.6,0.817-1.601,1.356-3.433,1.356c-0.976,0-1.136-0.142-1.172-0.408
		c-0.036-0.409-0.053-0.754-0.053-2.869V23.38c0-1.849,0.053-2.231,0.07-2.497c0.019-0.212,0.107-0.372,1.421-0.372
		c1.495,0,2.552,0.393,3.242,1.175c0.607,0.696,0.898,1.655,0.898,3.381C32.2605,27.037,31.8765,28.089,31.2875,28.87
		 M32.1005,20.429c-0.746-0.462-1.723-0.986-3.678-0.986c-1.048,0-2.025,0.048-2.859,0.048c-0.727,0-1.778-0.048-2.169-0.048
		l-0.036,0.486l1.052,0.107c0.337,0.034,0.443,0.106,0.461,0.408c0.018,0.39,0.018,1.459,0.018,2.861v3.608
		c0,1.618-0.07,2.958-0.09,3.33c-0.034,0.321-0.18,0.444-0.691,0.498l-0.857,0.053v0.482c0.342,0,1.531-0.053,2.259-0.053
		c0.853,0,1.721,0.053,2.593,0.073c1.174,0,2.311-0.196,3.11-0.588c2.223-1.029,3.022-3.369,3.022-5.712
		C34.2355,22.79,33.4535,21.246,32.1005,20.429"/>
	<path class="st0" d="M44.03,29.5504c-0.425,0.497-0.887,0.604-2.595,0.604c-1.615,0-1.723-0.089-1.74-0.445
		c-0.036-0.621-0.07-1.48-0.07-2.513v-1.446c0.178-0.017,0.706-0.036,1.047-0.036c1.655,0,1.863,0.352,1.97,1.503h0.484
		c-0.093-1.157-0.036-2.901,0.053-4.09h-0.444c-0.16,1.207-0.444,1.501-2.046,1.501c-0.283,0-0.869-0.017-1.064-0.035v-1.676
		c0-0.98,0.034-1.523,0.07-2.059c0.017-0.214,0.071-0.281,0.284-0.281h1.314c1.74,0,2.006,0.175,2.259,0.817
		c0.191,0.479,0.315,0.795,0.391,1.257l0.479-0.019c-0.053-0.904-0.019-2.783,0.034-3.244c-0.372,0.053-1.33,0.106-2.506,0.106h-3
		c-0.91,0-2.081-0.053-2.596-0.053v0.469l0.906,0.071c0.426,0.034,0.568,0.142,0.586,0.461c0.018,0.501,0.035,1.695,0.035,2.972
		v3.747c0,1.032-0.017,1.903-0.07,2.577c-0.019,0.514-0.142,0.888-0.481,0.905l-1.1,0.107l-0.017,0.525
		c0.602,0,1.881-0.053,2.737-0.053h2.219c2.095,0,3.182,0.037,3.768,0.089c0.089-0.462,0.425-3.046,0.444-3.472l-0.444-0.054
		C44.758,28.4954,44.439,29.1074,44.03,29.5504"/>
	<path class="st0" d="M60.0309,24.1595l-0.319,1.641c1.313-0.053,2.631-0.053,4.105,0l0.301-1.641
		C62.6229,24.1955,61.3629,24.1955,60.0309,24.1595"/>
	<path class="st0" d="M16.0546,25.8552c-0.673,0-1.036-0.018-1.302-0.036c0,0,1.004-2.993,1.448-4.31
		c0.463,1.547,0.919,2.765,1.363,4.31C17.3876,25.8372,16.7116,25.8552,16.0546,25.8552 M20.7916,30.2292
		c-0.678-1.598-2.538-7.961-3.408-10.929c-0.337,0.143-1.368,0.231-1.718,0.266c-0.058,0.267-0.225,0.774-0.383,1.288
		c-0.516,1.51-2.633,7.316-3.201,8.772c-0.408,0.976-0.469,1.1-1.462,1.171v0.498c0.71,0,1.527-0.053,2.042-0.053
		c0.797,0,1.388,0.053,1.939,0.053l0.017-0.498c-1.297-0.074-1.353-0.266-1.176-1.029c0.125-0.498,0.439-1.261,0.937-2.809
		c0.249-0.018,0.789-0.018,1.535-0.018c0.763,0,1.525,0,1.811,0.018c0.372,1.157,0.915,2.702,1.094,3.324
		c0.087,0.355-0.09,0.426-1.173,0.514l0.036,0.498c0.781,0,1.527-0.053,2.379-0.053c0.891,0,1.78,0.053,2.187,0.053v-0.498
		l-0.673-0.053C21.1646,30.6922,20.9516,30.5852,20.7916,30.2292"/>
	<path class="st0" d="M54.6896,19.4473l-0.09,0.498l0.658,0.049c0.67,0.053,0.841,0.217,0.915,0.819
		c0.071,0.481,0.181,2.203,0.145,7.39c-2.626-3.731-4.345-6.195-4.86-6.995c-0.532-0.82-0.948-1.463-1.107-1.747
		c-0.431,0.054-0.686,0.039-1.277,0.039c-0.616,0-1.472-0.053-1.81-0.053v0.498l0.817,0.087c0.6,0.082,0.668,0.395,0.663,0.676
		c0,4.086-0.166,8.478-0.255,9.189c-0.074,0.462-0.163,0.766-0.589,0.838c-0.302,0.053-0.458,0.067-0.689,0.067l-0.035,0.497
		c0.461,0,1.1-0.052,1.917-0.052c0.98,0,1.796,0.052,2.382,0.052l0.036-0.497c-0.444-0.035-0.657-0.071-0.955-0.107
		c-0.323-0.053-0.502-0.247-0.589-0.692c-0.093-0.656-0.142-4.158-0.142-8.191c2.095,3.053,5.011,7.187,6.589,9.658
		c0.267-0.071,0.74-0.171,1.023-0.205v-4.745c0-2.702,0.106-5.139,0.213-5.795c0.051-0.408,0.136-0.611,0.419-0.678
		c0.249-0.053,0.32-0.049,0.711-0.102v-0.498c-0.448,0-1.23,0.053-1.903,0.053C56.2376,19.5003,55.4376,19.4473,54.6896,19.4473"/>
	<path class="st0" d="M72.0974,29.304c-0.384,0.579-1.189,0.903-2.631,0.903c-0.71,0-0.889-0.108-0.906-0.299
		c-0.036-0.589-0.053-1.006-0.053-2.159v-2.213c0.195-0.036,0.532-0.053,0.889-0.053c1.385,0,2.185,0.281,2.613,0.725
		c0.371,0.426,0.478,0.795,0.478,1.594C72.4874,28.53,72.3204,28.963,72.0974,29.304 M68.5074,22.668c0-0.941,0.036-1.321,0.07-1.84
		c0-0.227,0.143-0.336,1.066-0.336c1.138,0,1.687,0.23,1.971,0.657c0.212,0.318,0.284,0.595,0.288,1.199
		c0.003,1.431-0.924,2.12-2.506,2.12c-0.357,0-0.676,0-0.889-0.018V22.668z M73.5174,25.633c-0.568-0.39-1.307-0.729-2.383-0.753
		c0.494-0.089,0.789-0.153,1.186-0.363c0.658-0.347,1.463-0.997,1.463-2.364c0-0.692-0.23-1.332-0.692-1.744
		c-0.532-0.492-1.243-0.969-2.876-0.969c-0.944,0-1.957,0.054-2.791,0.054s-1.598-0.054-2.169-0.054v0.54
		c1.154,0.053,1.442,0.159,1.459,0.408c0.053,0.604,0.053,1.428,0.053,2.546v4.69c0,1.084-0.036,2.12-0.07,2.671
		c-0.019,0.319-0.288,0.391-1.461,0.443l-0.017,0.541c0.607-0.018,1.654-0.053,2.152-0.053c0.781,0,1.597,0.035,2.379,0.035
		c1.263,0,2.525-0.164,3.36-0.71c0.905-0.591,1.402-1.649,1.402-2.802C74.5124,26.648,74.1034,26.026,73.5174,25.633"/>
	<path class="st0" d="M96.1586,28.87c-0.6,0.817-1.601,1.356-3.433,1.356c-0.976,0-1.136-0.142-1.172-0.408
		c-0.036-0.409-0.053-0.754-0.053-2.869V23.38c0-1.849,0.053-2.231,0.07-2.497c0.019-0.212,0.107-0.372,1.421-0.372
		c1.495,0,2.553,0.393,3.241,1.175c0.608,0.696,0.899,1.655,0.899,3.381C97.1316,27.037,96.7476,28.089,96.1586,28.87
		 M96.9716,20.429c-0.745-0.462-1.722-0.986-3.678-0.986c-1.047,0-2.025,0.048-2.859,0.048c-0.727,0-1.778-0.048-2.169-0.048
		l-0.036,0.486l1.05,0.107c0.339,0.034,0.446,0.106,0.464,0.408c0.017,0.39,0.017,1.459,0.017,2.861v3.608
		c0,1.618-0.071,2.958-0.09,3.33c-0.034,0.321-0.18,0.444-0.691,0.498l-0.855,0.053v0.482c0.34,0,1.529-0.053,2.259-0.053
		c0.851,0,1.721,0.053,2.591,0.073c1.174,0,2.311-0.196,3.11-0.588c2.223-1.029,3.02-3.369,3.02-5.712
		C99.1046,22.79,98.3246,21.246,96.9716,20.429"/>
	<path class="st0" d="M108.9025,29.5504c-0.426,0.497-0.887,0.604-2.596,0.604c-1.616,0-1.722-0.089-1.74-0.445
		c-0.036-0.621-0.07-1.48-0.07-2.513v-1.446c0.177-0.017,0.705-0.036,1.047-0.036c1.655,0,1.864,0.352,1.97,1.503h0.483
		c-0.092-1.157-0.035-2.901,0.053-4.09h-0.443c-0.159,1.207-0.444,1.501-2.044,1.501c-0.285,0-0.872-0.017-1.066-0.035v-1.676
		c0-0.98,0.034-1.523,0.07-2.059c0.018-0.214,0.071-0.281,0.284-0.281h1.314c1.74,0,2.006,0.175,2.258,0.817
		c0.192,0.479,0.316,0.795,0.391,1.257l0.479-0.019c-0.052-0.904-0.018-2.783,0.035-3.244c-0.372,0.053-1.331,0.106-2.506,0.106
		h-3.001c-0.91,0-2.08-0.053-2.595-0.053v0.469l0.906,0.071c0.426,0.034,0.568,0.142,0.585,0.461
		c0.019,0.501,0.036,1.695,0.036,2.972v3.747c0,1.032-0.017,1.903-0.071,2.577c-0.018,0.514-0.141,0.888-0.48,0.905l-1.1,0.107
		l-0.018,0.525c0.603,0,1.882-0.053,2.737-0.053h2.219c2.097,0,3.182,0.037,3.769,0.089c0.087-0.462,0.424-3.046,0.443-3.472
		l-0.443-0.054C109.6305,28.4954,109.3105,29.1074,108.9025,29.5504"/>
	<path class="st0" d="M80.9275,25.8552c-0.675,0-1.038-0.018-1.304-0.036c0,0,1.005-2.993,1.448-4.31
		c0.463,1.547,0.92,2.765,1.364,4.31C82.2585,25.8372,81.5825,25.8552,80.9275,25.8552 M85.6625,30.2292
		c-0.678-1.598-2.538-7.961-3.408-10.929c-0.336,0.143-1.368,0.231-1.719,0.266c-0.057,0.267-0.224,0.774-0.382,1.288
		c-0.516,1.51-2.632,7.316-3.201,8.772c-0.408,0.976-0.468,1.1-1.462,1.171v0.498c0.71,0,1.527-0.053,2.042-0.053
		c0.799,0,1.388,0.053,1.939,0.053l0.017-0.498c-1.295-0.074-1.353-0.266-1.176-1.029c0.125-0.498,0.441-1.261,0.938-2.809
		c0.248-0.018,0.789-0.018,1.534-0.018c0.763,0,1.526,0,1.811,0.018c0.374,1.157,0.917,2.702,1.094,3.324
		c0.089,0.355-0.09,0.426-1.173,0.514l0.037,0.498c0.78,0,1.527-0.053,2.378-0.053c0.891,0,1.78,0.053,2.188,0.053v-0.498
		l-0.676-0.053C86.0355,30.6922,85.8225,30.5852,85.6625,30.2292"/>
	<path class="st0" d="M121.7477,19.5003c-0.639,0-1.439-0.053-2.187-0.053l-0.09,0.498l0.658,0.049
		c0.671,0.053,0.841,0.217,0.915,0.819c0.071,0.481,0.181,2.203,0.147,7.39c-2.628-3.731-4.348-6.195-4.862-6.995
		c-0.532-0.82-0.948-1.463-1.107-1.747c-0.431,0.053-0.686,0.039-1.276,0.039c-0.617,0-1.473-0.053-1.81-0.053v0.498l0.816,0.087
		c0.6,0.082,0.668,0.395,0.663,0.676c0,4.086-0.166,8.478-0.255,9.189c-0.07,0.462-0.163,0.766-0.589,0.838
		c-0.302,0.053-0.458,0.067-0.689,0.067l-0.035,0.497c0.461,0,1.1-0.052,1.917-0.052c0.98,0,1.797,0.052,2.382,0.052l0.036-0.497
		c-0.444-0.035-0.657-0.071-0.955-0.107c-0.323-0.053-0.5-0.247-0.589-0.693c-0.093-0.655-0.142-4.157-0.142-8.19
		c2.094,3.053,5.01,7.187,6.589,9.658c0.267-0.071,0.74-0.171,1.023-0.206v-4.744c0-2.702,0.106-5.139,0.214-5.795
		c0.05-0.408,0.135-0.611,0.418-0.678c0.249-0.053,0.321-0.05,0.711-0.102v-0.498
		C123.2057,19.4473,122.4217,19.5003,121.7477,19.5003"/>
	<path class="st0" d="M40.3123,9.3692l-0.479-0.302c-0.657,1.886-1.776,2.426-3.412,2.426c-1.119,0-2.192-0.498-2.849-1.527
		c-0.586-0.871-0.844-1.911-0.844-3.331c0-1.739,0.415-2.848,1.111-3.736c0.638-0.798,1.444-1.3,2.544-1.3
		c2.01,0,2.793,1.375,2.935,3.222l0.532-0.053c-0.072-1.169,0.018-2.77,0.16-3.746l-0.426-0.143l-0.245,0.654
		c-0.53-0.551-1.655-1.001-3.074-1.001c-1.62,0-3.007,0.682-3.913,1.569c-1.066,1.013-1.634,2.667-1.634,4.766
		c0,1.598,0.504,3.196,1.232,4.136c0.869,1.193,2.144,1.824,3.92,1.824C38.2353,12.8272,39.6733,11.4132,40.3123,9.3692"/>
	<path class="st0" d="M46.1191,7.1569c-0.679,0-1.038-0.018-1.304-0.035c0,0,1.005-2.994,1.448-4.311
		c0.462,1.547,0.919,2.766,1.363,4.311C47.4501,7.1389,46.7741,7.1569,46.1191,7.1569 M48.8811,11.5849
		c0.089,0.355-0.09,0.427-1.173,0.514l0.037,0.498c0.78,0,1.527-0.053,2.378-0.053c0.892,0,1.78,0.053,2.187,0.053v-0.498
		l-0.675-0.053c-0.408-0.052-0.62-0.159-0.781-0.515c-0.678-1.598-2.539-7.96-3.409-10.929c-0.336,0.143-1.367,0.232-1.718,0.266
		c-0.057,0.267-0.224,0.775-0.383,1.29c-0.515,1.509-2.631,7.314-3.2,8.77c-0.408,0.976-0.469,1.101-1.462,1.171v0.498
		c0.71,0,1.527-0.053,2.042-0.053c0.798,0,1.388,0.053,1.938,0.053l0.017-0.498c-1.295-0.074-1.352-0.266-1.175-1.029
		c0.125-0.498,0.441-1.261,0.938-2.808c0.248-0.019,0.789-0.019,1.534-0.019c0.763,0,1.526,0,1.811,0.019
		C48.1591,9.4189,48.7031,10.9629,48.8811,11.5849"/>
	<path class="st0" d="M60.9282,9.1942c0-1.173-0.478-1.9-1.402-2.398c-0.638-0.425-1.562-0.855-2.861-1.548
		c-0.888-0.479-1.225-1.154-1.225-1.723c0-1.224,0.727-1.927,1.903-1.927c1.296,0,2.343,0.668,2.326,2.71l0.497-0.054
		c0-0.639,0.035-2.046,0.284-3.429l-0.443-0.104l-0.253,0.649c-0.408-0.391-1.345-0.841-2.361-0.841
		c-2.042,0-3.463,1.36-3.463,3.313c0,1.41,0.462,2.206,1.669,2.883c0.821,0.462,2.206,1.137,2.738,1.456
		c0.674,0.391,0.976,0.941,0.976,1.686c0,1.065-1.029,1.876-2.222,1.876c-1.829,0-2.804-0.952-2.734-3.171l-0.48,0.107
		c-0.018,0.905-0.035,2.201-0.143,3.198c0.73,0.339,1.989,0.951,3.077,0.951C59.0842,12.8282,60.9282,11.7642,60.9282,9.1942"/>
	<path class="st0" d="M64.5455,11.5042c-0.037,0.445-0.303,0.57-1.439,0.605l-0.018,0.498c0.586-0.02,1.58-0.054,2.308-0.054
		c0.78,0,1.78,0.054,2.436,0.054l0.017-0.498c-1.121-0.054-1.404-0.141-1.424-0.622c-0.034-0.553-0.07-1.458-0.07-2.701v-4.656
		c0-1.136,0.036-1.974,0.07-2.312c0.037-0.408,0.267-0.532,1.407-0.568l-0.017-0.496c-0.586,0-1.564,0.053-2.383,0.053
		c-0.817,0-1.829-0.036-2.326-0.053l-0.018,0.496c1.225,0.068,1.491,0.142,1.51,0.676c0.017,0.462,0.017,1.193,0.017,2.293v4.602
		C64.6155,10.2412,64.5795,11.1152,64.5455,11.5042"/>
	<path class="st0" d="M74.0807,12.6044l0.034-0.497c-0.444-0.035-0.656-0.071-0.955-0.107c-0.322-0.053-0.5-0.247-0.588-0.691
		c-0.093-0.657-0.142-4.159-0.142-8.192c2.094,3.053,5.009,7.187,6.59,9.658c0.266-0.07,0.739-0.171,1.022-0.205v-4.744
		c0-2.703,0.107-5.139,0.213-5.796c0.049-0.408,0.135-0.611,0.419-0.678c0.248-0.053,0.32-0.049,0.711-0.102v-0.498
		c-0.445,0-1.23,0.053-1.903,0.053c-0.64,0-1.439-0.053-2.187-0.053l-0.089,0.498l0.657,0.049c0.671,0.053,0.841,0.217,0.914,0.819
		c0.072,0.481,0.182,2.203,0.146,7.39c-2.627-3.731-4.346-6.195-4.861-6.995c-0.532-0.82-0.947-1.463-1.106-1.747
		c-0.432,0.054-0.686,0.039-1.277,0.039c-0.617,0-1.474-0.053-1.81-0.053v0.498l0.817,0.087c0.6,0.082,0.667,0.395,0.663,0.676
		c0,4.086-0.165,8.478-0.255,9.189c-0.072,0.462-0.163,0.767-0.589,0.838c-0.302,0.053-0.459,0.067-0.689,0.067l-0.036,0.497
		c0.462,0,1.102-0.052,1.918-0.052C72.6777,12.5524,73.4937,12.6044,74.0807,12.6044"/>
	<path class="st0" d="M90.3594,10.5488c-0.349,0.634-1.254,1.211-2.159,1.211c-0.98,0-2.063-0.718-2.432-1.489
		c-0.426-0.884-0.91-1.967-0.91-3.706c0-1.74,0.463-3.029,0.912-3.715c0.448-0.689,1.289-1.285,2.289-1.285
		c1.064,0,1.831,0.569,2.194,1.214c0.517,0.923,1.001,2.295,1.001,3.946C91.2544,8.4278,90.8064,9.7428,90.3594,10.5488
		 M93.2814,6.4938c0-3.129-1.797-5.963-5.098-5.963c-3.502,0-5.352,2.977-5.352,6.246c0,3.751,2.116,6.051,5.228,6.051
		C91.1464,12.8278,93.2814,10.5628,93.2814,6.4938"/>
</g>
</svg>
